<svg width="48" height="49" viewBox="0 0 48 49" fill="none" xmlns="http://www.w3.org/2000/svg">
<rect x="0.107986" y="0.276367" width="47.892" height="47.892" rx="23.946" fill="#121242"/>
<rect x="0.107986" y="0.276367" width="47.892" height="47.892" rx="23.946" fill="#121242"/>
<path d="M18.5364 17.2387C18.5362 17.7679 18.3257 18.2754 17.9513 18.6494C17.5769 19.0235 17.0692 19.2335 16.5399 19.2332C16.0107 19.2329 15.5032 19.0224 15.1292 18.648C14.7552 18.2736 14.5452 17.7659 14.5454 17.2367C14.5457 16.7075 14.7562 16.2 15.1306 15.826C15.505 15.4519 16.0127 15.2419 16.5419 15.2422C17.0712 15.2425 17.5786 15.4529 17.9527 15.8274C18.3267 16.2018 18.5367 16.7094 18.5364 17.2387ZM18.5963 20.7109H14.6053V33.2027H18.5963V20.7109ZM24.9021 20.7109H20.931V33.2027H24.8622V26.6475C24.8622 22.9957 29.6215 22.6565 29.6215 26.6475V33.2027H33.5626V25.2905C33.5626 19.1344 26.5185 19.3639 24.8622 22.3871L24.9021 20.7109Z" fill="white"/>
</svg>
