<svg width="48" height="49" viewBox="0 0 48 49" fill="none" xmlns="http://www.w3.org/2000/svg">
<rect x="3.05176e-05" y="0.276367" width="47.892" height="47.892" rx="23.946" fill="#121242"/>
<rect x="3.05176e-05" y="0.276367" width="47.892" height="47.892" rx="23.946" fill="#121242"/>
<path d="M34.3825 17.737C33.6143 18.0862 32.7861 18.3157 31.9281 18.4254C32.8061 17.8966 33.4846 17.0585 33.8038 16.0508C32.9757 16.5496 32.0578 16.8988 31.0899 17.0984C30.3017 16.2403 29.1942 15.7415 27.9371 15.7415C25.5923 15.7415 23.6767 17.6571 23.6767 20.0218C23.6767 20.361 23.7166 20.6903 23.7864 20.9996C20.2344 20.82 17.0715 19.1139 14.9663 16.5297C14.5971 17.1583 14.3876 17.8966 14.3876 18.6748C14.3876 20.1615 15.1359 21.4785 16.2933 22.2268C15.5849 22.2268 14.9264 22.0273 14.3477 21.728V21.7579C14.3477 23.8332 15.8244 25.5693 17.78 25.9584C17.1521 26.1302 16.4929 26.1542 15.8543 26.0283C16.1253 26.8788 16.656 27.6231 17.3719 28.1564C18.0878 28.6897 18.9528 28.9853 19.8453 29.0016C18.3323 30.1993 16.4569 30.8467 14.5273 30.8374C14.188 30.8374 13.8488 30.8175 13.5096 30.7776C15.4053 31.9948 17.6602 32.7032 20.0748 32.7032C27.9371 32.7032 32.2573 26.1779 32.2573 20.5207C32.2573 20.3311 32.2573 20.1515 32.2473 19.9619C33.0855 19.3633 33.8038 18.605 34.3825 17.737Z" fill="white"/>
</svg>
