<svg width="49" height="49" viewBox="0 0 49 49" fill="none" xmlns="http://www.w3.org/2000/svg">
<rect x="0.892075" y="0.276367" width="47.892" height="47.892" rx="23.946" fill="#121242"/>
<rect x="0.892075" y="0.276367" width="47.892" height="47.892" rx="23.946" fill="#121242"/>
<path d="M34.873 19.1788C34.7537 18.7358 34.5202 18.3319 34.1959 18.0075C33.8715 17.6831 33.4676 17.4497 33.0246 17.3304C31.3933 16.8889 24.8381 16.8889 24.8381 16.8889C24.8381 16.8889 18.2829 16.8889 16.6515 17.3304C16.2086 17.4497 15.8047 17.6831 15.4803 18.0075C15.1559 18.3319 14.9224 18.7358 14.8032 19.1788C14.4986 20.8425 14.3508 22.5311 14.3617 24.2224C14.3508 25.9137 14.4986 27.6023 14.8032 29.266C14.9224 29.709 15.1559 30.1129 15.4803 30.4372C15.8047 30.7616 16.2086 30.9951 16.6515 31.1143C18.2829 31.5559 24.8381 31.5559 24.8381 31.5559C24.8381 31.5559 31.3933 31.5559 33.0246 31.1143C33.4676 30.9951 33.8715 30.7616 34.1959 30.4372C34.5202 30.1129 34.7537 29.709 34.873 29.266C35.1776 27.6023 35.3254 25.9137 35.3145 24.2224C35.3254 22.5311 35.1776 20.8425 34.873 19.1788ZM22.7428 27.3653V21.0795L28.1831 24.2224L22.7428 27.3653Z" fill="white"/>
</svg>
